<svg width="28" height="28" viewBox="0 0 28 28" fill="none" xmlns="http://www.w3.org/2000/svg">
<path d="M7 9.33301C7 7.47649 7.7375 5.69601 9.05025 4.38326C10.363 3.07051 12.1435 2.33301 14 2.33301C15.8565 2.33301 17.637 3.07051 18.9497 4.38326C20.2625 5.69601 21 7.47649 21 9.33301C21 17.4997 24.5 19.833 24.5 19.833H3.5C3.5 19.833 7 17.4997 7 9.33301Z" stroke="#A855F7" stroke-width="2.33333" stroke-linecap="round" stroke-linejoin="round"/>
<path d="M12.0167 24.5C12.212 24.8552 12.4991 25.1514 12.848 25.3577C13.1968 25.564 13.5947 25.6729 14.0001 25.6729C14.4054 25.6729 14.8033 25.564 15.1522 25.3577C15.501 25.1514 15.7881 24.8552 15.9834 24.5" stroke="#A855F7" stroke-width="2.33333" stroke-linecap="round" stroke-linejoin="round"/>
</svg>
