<svg width="64" height="64" viewBox="0 0 64 64" fill="none" xmlns="http://www.w3.org/2000/svg">
<circle cx="32" cy="32" r="32" fill="#E17100" fill-opacity="0.8"/>
<path d="M30.615 15.3299C31.1274 14.098 32.8726 14.098 33.385 15.3299L36.9382 23.8729C37.1542 24.3923 37.6426 24.7471 38.2033 24.7921L47.4262 25.5315C48.7562 25.6381 49.2955 27.2978 48.2822 28.1658L41.2553 34.1851C40.8281 34.551 40.6416 35.1252 40.7721 35.6723L42.9189 44.6723C43.2285 45.9702 41.8166 46.996 40.678 46.3005L32.7819 41.4776C32.3019 41.1844 31.6981 41.1844 31.2181 41.4776L23.322 46.3005C22.1834 46.996 20.7715 45.9702 21.0811 44.6723L23.2279 35.6723C23.3584 35.1252 23.1719 34.551 22.7447 34.1851L15.7178 28.1658C14.7045 27.2978 15.2438 25.6381 16.5738 25.5315L25.7967 24.7921C26.3574 24.7471 26.8458 24.3923 27.0618 23.8729L30.615 15.3299Z" fill="#FEF3C6"/>
</svg>
