<svg width="37" height="36" viewBox="0 0 37 36" fill="none" xmlns="http://www.w3.org/2000/svg">
<rect x="0.399994" width="36" height="36" rx="18" fill="#3B82F6" fill-opacity="0.2"/>
<path d="M11.7333 19.6667C11.5756 19.6673 11.421 19.623 11.2875 19.5392C11.1539 19.4554 11.0469 19.3354 10.9788 19.1931C10.9107 19.0509 10.8844 18.8922 10.9029 18.7356C10.9214 18.579 10.984 18.4309 11.0833 18.3084L19.3333 9.80839C19.3952 9.73696 19.4795 9.68868 19.5725 9.6715C19.6654 9.65431 19.7614 9.66923 19.8448 9.71381C19.9281 9.75838 19.9938 9.82997 20.0311 9.91681C20.0684 10.0037 20.0751 10.1006 20.05 10.1917L18.45 15.2084C18.4028 15.3347 18.387 15.4705 18.4038 15.6042C18.4207 15.738 18.4697 15.8656 18.5467 15.9762C18.6238 16.0869 18.7265 16.1771 18.8461 16.2394C18.9656 16.3016 19.0985 16.3338 19.2333 16.3334H25.0667C25.2244 16.3329 25.379 16.3771 25.5125 16.4609C25.6461 16.5447 25.7531 16.6648 25.8212 16.807C25.8893 16.9493 25.9156 17.1079 25.8971 17.2645C25.8786 17.4211 25.816 17.5693 25.7167 17.6917L17.4667 26.1917C17.4048 26.2632 17.3204 26.3114 17.2275 26.3286C17.1346 26.3458 17.0386 26.3309 16.9552 26.2863C16.8719 26.2417 16.8062 26.1701 16.7689 26.0833C16.7316 25.9965 16.7249 25.8995 16.75 25.8084L18.35 20.7917C18.3972 20.6655 18.413 20.5296 18.3962 20.3959C18.3793 20.2621 18.3303 20.1345 18.2533 20.0239C18.1762 19.9132 18.0735 19.823 17.9539 19.7608C17.8343 19.6985 17.7015 19.6663 17.5667 19.6667H11.7333Z" stroke="#3B82F6" stroke-width="1.66667" stroke-linecap="round" stroke-linejoin="round"/>
</svg>
