<svg width="37" height="36" viewBox="0 0 37 36" fill="none" xmlns="http://www.w3.org/2000/svg">
<rect x="0.389999" width="36" height="36" rx="18" fill="#EAB308" fill-opacity="0.2"/>
<path d="M21.2875 18.7417L22.55 25.8467C22.5641 25.9304 22.5524 26.0163 22.5164 26.0932C22.4803 26.17 22.4217 26.2339 22.3483 26.2765C22.2749 26.3191 22.1903 26.3383 22.1057 26.3315C22.0211 26.3246 21.9406 26.2922 21.875 26.2384L18.8917 23.9992C18.7477 23.8916 18.5727 23.8335 18.3929 23.8335C18.2131 23.8335 18.0382 23.8916 17.8942 23.9992L14.9058 26.2375C14.8403 26.2912 14.7599 26.3237 14.6754 26.3305C14.5909 26.3373 14.5064 26.3182 14.4331 26.2758C14.3597 26.2333 14.3011 26.1695 14.2649 26.0928C14.2288 26.0162 14.2169 25.9303 14.2308 25.8467L15.4925 18.7417" stroke="#EAB308" stroke-width="1.66667" stroke-linecap="round" stroke-linejoin="round"/>
<path d="M18.39 19.6665C21.1514 19.6665 23.39 17.4279 23.39 14.6665C23.39 11.9051 21.1514 9.6665 18.39 9.6665C15.6286 9.6665 13.39 11.9051 13.39 14.6665C13.39 17.4279 15.6286 19.6665 18.39 19.6665Z" stroke="#EAB308" stroke-width="1.66667" stroke-linecap="round" stroke-linejoin="round"/>
</svg>
