<svg width="32" height="32" viewBox="0 0 32 32" fill="none" xmlns="http://www.w3.org/2000/svg">
<path d="M15.9998 14.3998C18.6508 14.3998 20.7998 12.2508 20.7998 9.5998C20.7998 6.94884 18.6508 4.7998 15.9998 4.7998C13.3489 4.7998 11.1998 6.94884 11.1998 9.5998C11.1998 12.2508 13.3489 14.3998 15.9998 14.3998Z" fill="#4CAF50"/>
<path d="M12.7999 27.2L11.1999 17.6C11.0399 16.7163 11.9163 16 12.7999 16H19.1999C20.0836 16 20.7999 16.7163 20.7999 17.6L19.1999 27.2" stroke="#4CAF50" stroke-width="2.4" stroke-linecap="round"/>
<path d="M20.7999 15.9999C22.3999 12.7999 24.7999 7.9999 25.5999 6.3999" stroke="#4CAF50" stroke-width="2.4" stroke-linecap="round" stroke-linejoin="round"/>
<path d="M23.9999 4.7998L27.1999 7.9998" stroke="#4CAF50" stroke-width="2.4" stroke-linecap="round"/>
<path d="M25.5999 4.7998V7.9998" stroke="#4CAF50" stroke-width="2.4" stroke-linecap="round"/>
</svg>
