<svg width="37" height="36" viewBox="0 0 37 36" fill="none" xmlns="http://www.w3.org/2000/svg">
<rect x="0.390015" width="36" height="36" rx="18" fill="#94A3B8" fill-opacity="0.2"/>
<path d="M25.0567 18.8335C25.0567 23.0002 22.14 25.0835 18.6734 26.2919C18.4918 26.3534 18.2946 26.3505 18.115 26.2835C14.64 25.0835 11.7234 23.0002 11.7234 18.8335V13.0002C11.7234 12.7792 11.8112 12.5672 11.9674 12.411C12.1237 12.2547 12.3357 12.1669 12.5567 12.1669C14.2234 12.1669 16.3067 11.1669 17.7567 9.90021C17.9332 9.74938 18.1578 9.6665 18.39 9.6665C18.6222 9.6665 18.8468 9.74938 19.0234 9.90021C20.4817 11.1752 22.5567 12.1669 24.2234 12.1669C24.4444 12.1669 24.6563 12.2547 24.8126 12.411C24.9689 12.5672 25.0567 12.7792 25.0567 13.0002V18.8335Z" stroke="#94A3B8" stroke-width="1.66667" stroke-linecap="round" stroke-linejoin="round"/>
</svg>
