<svg width="40" height="40" viewBox="0 0 40 40" fill="none" xmlns="http://www.w3.org/2000/svg">
<mask id="path-1-inside-1_81_958" fill="white">
<path d="M0 20C0 8.95431 8.95431 0 20 0C31.0457 0 40 8.95431 40 20C40 31.0457 31.0457 40 20 40C8.95431 40 0 31.0457 0 20Z"/>
</mask>
<path d="M0 20C0 8.95431 8.95431 0 20 0C31.0457 0 40 8.95431 40 20C40 31.0457 31.0457 40 20 40C8.95431 40 0 31.0457 0 20Z" fill="#1E3A8A" fill-opacity="0.5"/>
<path d="M20 40V39C9.50659 39 1 30.4934 1 20H0H-1C-1 31.598 8.40202 41 20 41V40ZM40 20H39C39 30.4934 30.4934 39 20 39V40V41C31.598 41 41 31.598 41 20H40ZM20 0V1C30.4934 1 39 9.50659 39 20H40H41C41 8.40202 31.598 -1 20 -1V0ZM20 0V-1C8.40202 -1 -1 8.40202 -1 20H0H1C1 9.50659 9.50659 1 20 1V0Z" fill="#1D4ED8" fill-opacity="0.5" mask="url(#path-1-inside-1_81_958)"/>
<path d="M20.3594 20.0078H17.4375L17.4219 18.3984H19.875C20.3073 18.3984 20.6615 18.3438 20.9375 18.2344C21.2135 18.1198 21.4193 17.9557 21.5547 17.7422C21.6953 17.5234 21.7656 17.2578 21.7656 16.9453C21.7656 16.5911 21.6979 16.3047 21.5625 16.0859C21.4323 15.8672 21.2266 15.7083 20.9453 15.6094C20.6693 15.5104 20.3125 15.4609 19.875 15.4609H18.25V25H15.9062V13.625H19.875C20.5365 13.625 21.1276 13.6875 21.6484 13.8125C22.1745 13.9375 22.6198 14.1276 22.9844 14.3828C23.349 14.638 23.6276 14.9609 23.8203 15.3516C24.013 15.737 24.1094 16.1953 24.1094 16.7266C24.1094 17.1953 24.0026 17.6276 23.7891 18.0234C23.5807 18.4193 23.25 18.7422 22.7969 18.9922C22.349 19.2422 21.763 19.3802 21.0391 19.4062L20.3594 20.0078ZM20.2578 25H16.7969L17.7109 23.1719H20.2578C20.6693 23.1719 21.0052 23.1068 21.2656 22.9766C21.526 22.8411 21.7188 22.6589 21.8438 22.4297C21.9688 22.2005 22.0312 21.9375 22.0312 21.6406C22.0312 21.3073 21.974 21.0182 21.8594 20.7734C21.75 20.5286 21.5729 20.3411 21.3281 20.2109C21.0833 20.0755 20.7604 20.0078 20.3594 20.0078H18.1016L18.1172 18.3984H20.9297L21.4688 19.0312C22.1615 19.0208 22.7188 19.1432 23.1406 19.3984C23.5677 19.6484 23.8776 19.974 24.0703 20.375C24.2682 20.776 24.3672 21.2057 24.3672 21.6641C24.3672 22.3932 24.2083 23.0078 23.8906 23.5078C23.5729 24.0026 23.1068 24.375 22.4922 24.625C21.8828 24.875 21.138 25 20.2578 25Z" fill="#60A5FA"/>
</svg>
