<svg width="20" height="20" viewBox="0 0 20 20" fill="none" xmlns="http://www.w3.org/2000/svg">
<path d="M5.83325 8.33337V18.3334" stroke="#A1A1AA" stroke-width="1.66667" stroke-linecap="round" stroke-linejoin="round"/>
<path d="M12.5001 4.89996L11.6667 8.33329H16.5251C16.7838 8.33329 17.039 8.39353 17.2704 8.50925C17.5019 8.62496 17.7032 8.79297 17.8584 8.99996C18.0137 9.20695 18.1186 9.44725 18.1649 9.70182C18.2111 9.95638 18.1975 10.2182 18.1251 10.4666L16.1834 17.1333C16.0824 17.4795 15.8719 17.7836 15.5834 18C15.2949 18.2163 14.944 18.3333 14.5834 18.3333H3.33341C2.89139 18.3333 2.46746 18.1577 2.1549 17.8451C1.84234 17.5326 1.66675 17.1087 1.66675 16.6666V9.99996C1.66675 9.55793 1.84234 9.13401 2.1549 8.82145C2.46746 8.50889 2.89139 8.33329 3.33341 8.33329H5.63341C5.94348 8.33313 6.24736 8.24647 6.51088 8.08306C6.77439 7.91965 6.9871 7.68597 7.12508 7.40829L10.0001 1.66663C10.3931 1.67149 10.7799 1.7651 11.1316 1.94046C11.4833 2.11581 11.7909 2.36838 12.0313 2.67929C12.2716 2.99021 12.4387 3.35143 12.5199 3.73596C12.601 4.1205 12.5943 4.51841 12.5001 4.89996Z" stroke="#A1A1AA" stroke-width="1.66667" stroke-linecap="round" stroke-linejoin="round"/>
</svg>
